<svg width="52" height="42" viewBox="0 0 52 42" fill="none" xmlns="http://www.w3.org/2000/svg">
<path d="M10.2989 30.4861C-0.833704 28.4257 -2.73131 14.9739 8.7808 11.1179C10.8682 0.403596 23.6453 -2.01007 30.7297 4.87771C33.7062 4.14802 35.2994 4.22624 37.9721 5.23093C37.0838 6.02959 36.6857 6.50559 36.1694 7.40912C33.4102 6.68573 32.0495 6.95939 29.7492 7.90951C23.3607 -0.155667 11.6272 4.08297 11.6272 13.2372C2.89823 13.2372 0.621113 26.2769 11.3426 27.8075H42.4315C50.7177 26.483 48.7252 16.3573 41.1348 16.6517C41.8938 14.0614 41.477 12.8072 40.8502 11.53C41.7669 11.043 42.2988 10.6487 43.2854 9.70504C44.125 11.3981 44.469 12.4193 44.5189 14.5618C53.4059 17.0049 53.564 29.5148 42.4315 30.4861H10.2989Z" fill="#7BE6FB" stroke="#7BE6FB"/>
<path d="M14.7266 36.0844V30.4918H17.1935V36.0844H19.0278L15.9284 41L12.8607 36.0844H14.7266Z" fill="#0C82EE"/>
<path d="M24.0565 36.0844V30.4918H26.5233V36.0844H28.3261L25.2583 41L22.1589 36.0844H24.0565Z" fill="#0C82EE"/>
<path d="M33.3547 36.0844V30.4918H35.8532V36.0844H37.6559L34.5881 41L31.4887 36.0844H33.3547Z" fill="#0C82EE"/>
<path d="M34.936 12.7131C34.7146 6.35511 39.4903 2.35195 45.8788 2.52856C46.037 8.18008 41.6725 13.184 34.936 12.7131Z" fill="#0C82EE"/>
<path d="M14.7266 36.0844V30.4918H17.1935V36.0844H19.0278L15.9284 41L12.8607 36.0844H14.7266Z" stroke="#0C82EE"/>
<path d="M24.0565 36.0844V30.4918H26.5233V36.0844H28.3261L25.2583 41L22.1589 36.0844H24.0565Z" stroke="#0C82EE"/>
<path d="M33.3547 36.0844V30.4918H35.8532V36.0844H37.6559L34.5881 41L31.4887 36.0844H33.3547Z" stroke="#0C82EE"/>
<path d="M34.936 12.7131C34.7146 6.35511 39.4903 2.35195 45.8788 2.52856C46.037 8.18008 41.6725 13.184 34.936 12.7131Z" stroke="#0C82EE"/>
</svg>
