<svg width="1440" height="120" viewBox="0 0 1440 120" fill="none" xmlns="http://www.w3.org/2000/svg">
<g clip-path="url(#clip0_1_789)">
<rect width="1440" height="120" fill="#121212"/>
<circle cx="-20" cy="91" r="40" fill="#575757"/>
<circle cx="51" cy="89" r="50" fill="#575757"/>
<circle cx="101" cy="86" r="25" fill="#575757"/>
<circle cx="178" cy="89" r="70" fill="#575757"/>
<circle cx="544" cy="103" r="70" fill="#575757"/>
<circle cx="630" cy="121" r="70" fill="#575757"/>
<circle cx="725" cy="121" r="70" fill="#575757"/>
<circle cx="264" cy="91" r="40" fill="#575757"/>
<circle cx="407" cy="83" r="32" fill="#575757"/>
<circle cx="464" cy="99" r="40" fill="#575757"/>
<circle cx="333" cy="119" r="60" fill="#575757"/>
<circle cx="788" cy="91" r="30" fill="#575757"/>
<circle cx="848" cy="99" r="60" fill="#575757"/>
<circle cx="918" cy="91" r="40" fill="#575757"/>
<circle cx="989" cy="89" r="50" fill="#575757"/>
<circle cx="1039" cy="86" r="25" fill="#575757"/>
<circle cx="1116" cy="89" r="70" fill="#575757"/>
<circle cx="1202" cy="91" r="40" fill="#575757"/>
<circle cx="1345" cy="83" r="32" fill="#575757"/>
<circle cx="1402" cy="99" r="40" fill="#575757"/>
<circle cx="1471" cy="103" r="60" fill="#575757"/>
<circle cx="1271" cy="119" r="60" fill="#575757"/>
<circle cx="30" cy="121" r="30" fill="white"/>
<circle cx="90" cy="129" r="60" fill="white"/>
<circle cx="160" cy="121" r="40" fill="white"/>
<circle cx="231" cy="119" r="50" fill="white"/>
<circle cx="281" cy="116" r="25" fill="white"/>
<circle cx="358" cy="147" r="70" fill="white"/>
<circle cx="444" cy="121" r="40" fill="white"/>
<circle cx="587" cy="113" r="32" fill="white"/>
<circle cx="644" cy="129" r="40" fill="white"/>
<circle cx="513" cy="149" r="60" fill="white"/>
<circle cx="635" cy="129" r="30" fill="white"/>
<circle cx="695" cy="147" r="60" fill="white"/>
<circle cx="765" cy="129" r="40" fill="white"/>
<circle cx="836" cy="127" r="50" fill="white"/>
<circle cx="886" cy="124" r="25" fill="white"/>
<circle cx="963" cy="141" r="70" fill="white"/>
<circle cx="1049" cy="129" r="40" fill="white"/>
<circle cx="1192" cy="121" r="32" fill="white"/>
<circle cx="1249" cy="137" r="40" fill="white"/>
<circle cx="1118" cy="157" r="60" fill="white"/>
<circle cx="870" cy="143" r="30" fill="white"/>
<circle cx="930" cy="151" r="60" fill="white"/>
<circle cx="1000" cy="143" r="40" fill="white"/>
<circle cx="1071" cy="141" r="50" fill="white"/>
<circle cx="1121" cy="138" r="25" fill="white"/>
<circle cx="1198" cy="141" r="70" fill="white"/>
<circle cx="1284" cy="143" r="40" fill="white"/>
<circle cx="1428" cy="125" r="32" fill="white"/>
<circle cx="1353" cy="151" r="60" fill="white"/>
</g>
<defs>
<clipPath id="clip0_1_789">
<rect width="1440" height="120" fill="white"/>
</clipPath>
</defs>
</svg>
