<svg width="1440" height="120" viewBox="0 0 1440 120" fill="none" xmlns="http://www.w3.org/2000/svg">
<g clip-path="url(#clip0_1_853)">
<rect width="1440" height="120" fill="#121212"/>
<circle cx="-16" cy="1" r="40" fill="#575757"/>
<circle cx="55" cy="-1" r="50" fill="#575757"/>
<circle cx="105" cy="-4" r="25" fill="#575757"/>
<circle cx="182" cy="-1" r="70" fill="#575757"/>
<circle cx="548" cy="13" r="70" fill="#575757"/>
<circle cx="634" cy="31" r="70" fill="#575757"/>
<circle cx="729" cy="31" r="70" fill="#575757"/>
<circle cx="268" cy="1" r="40" fill="#575757"/>
<circle cx="411" cy="-7" r="32" fill="#575757"/>
<circle cx="468" cy="9" r="40" fill="#575757"/>
<circle cx="337" cy="29" r="60" fill="#575757"/>
<circle cx="750" cy="21" r="30" fill="#575757"/>
<circle cx="810" cy="29" r="60" fill="#575757"/>
<circle cx="880" cy="21" r="40" fill="#575757"/>
<circle cx="951" cy="19" r="50" fill="#575757"/>
<circle cx="1001" cy="16" r="25" fill="#575757"/>
<circle cx="1078" cy="19" r="70" fill="#575757"/>
<circle cx="1164" cy="21" r="40" fill="#575757"/>
<circle cx="1307" cy="13" r="32" fill="#575757"/>
<circle cx="1364" cy="29" r="40" fill="#575757"/>
<circle cx="1433" cy="33" r="60" fill="#575757"/>
<circle cx="1233" cy="49" r="60" fill="#575757"/>
<circle cx="30" cy="-18" r="30" fill="white"/>
<circle cx="90" cy="-10" r="60" fill="white"/>
<circle cx="160" cy="-18" r="40" fill="white"/>
<circle cx="231" cy="-20" r="50" fill="white"/>
<circle cx="281" cy="-23" r="25" fill="white"/>
<circle cx="358" cy="-20" r="70" fill="white"/>
<circle cx="444" cy="-18" r="40" fill="white"/>
<circle cx="587" cy="-26" r="32" fill="white"/>
<circle cx="644" cy="-10" r="40" fill="white"/>
<circle cx="513" cy="10" r="60" fill="white"/>
<circle cx="639" cy="-11" r="30" fill="white"/>
<circle cx="699" cy="7" r="60" fill="white"/>
<circle cx="769" cy="-11" r="40" fill="white"/>
<circle cx="840" cy="-13" r="50" fill="white"/>
<circle cx="890" cy="-16" r="25" fill="white"/>
<circle cx="967" cy="-13" r="70" fill="white"/>
<circle cx="1053" cy="-11" r="40" fill="white"/>
<circle cx="1196" cy="-19" r="32" fill="white"/>
<circle cx="1253" cy="-3" r="40" fill="white"/>
<circle cx="1122" cy="17" r="60" fill="white"/>
<circle cx="870" cy="-28" r="30" fill="white"/>
<circle cx="930" cy="-20" r="60" fill="white"/>
<circle cx="1000" cy="-28" r="40" fill="white"/>
<circle cx="1071" cy="-30" r="50" fill="white"/>
<circle cx="1198" cy="-30" r="70" fill="white"/>
<circle cx="1284" cy="-28" r="40" fill="white"/>
<circle cx="1353" cy="-20" r="60" fill="white"/>
</g>
<defs>
<clipPath id="clip0_1_853">
<rect width="1440" height="120" fill="white"/>
</clipPath>
</defs>
</svg>
