<svg width="87" height="56" viewBox="0 0 87 56" fill="none" xmlns="http://www.w3.org/2000/svg">
<path d="M59.247 43.8115C56.4492 52.4929 48.1837 57.8097 39.1274 55.3044C36.8507 54.7193 35.4793 52.3969 36.069 50.1248C36.6541 47.8482 38.9765 46.4767 41.2486 47.0664C43.0772 47.7933 45.0019 48.3693 46.9539 47.903C50.1495 47.327 52.7553 44.5612 54.1954 41.7177C55.7909 38.7553 60.2207 40.6113 59.247 43.816V43.8115Z" fill="#53D8FB" fill-opacity="0.74"/>
<path d="M30.3229 36.7166C27.9868 37.6812 23.8861 39.6835 23.3146 42.2573C23.3055 42.7053 23.4563 42.8059 23.7261 43.1442C25.2987 44.9546 25.1067 47.6975 23.2963 49.2702C21.134 51.2222 17.5041 50.3536 16.4344 47.6564L16.0687 46.7649C14.6195 43.4048 15.3875 39.5098 17.8379 36.8446C20.782 33.6993 24.8507 32.2547 28.9011 31.4135C32.2612 30.8512 33.491 35.5371 30.3183 36.712L30.3229 36.7166Z" fill="#53D8FB" fill-opacity="0.74"/>
<path d="M73.5512 39.1304C70.6894 47.021 55.7952 47.8987 48.3252 47.2038C45.8931 46.9798 43.0724 46.4769 40.2198 45.6998C32.1783 43.5237 23.8809 39.1944 23.2774 32.8353C22.8431 28.2317 26.4638 22.8098 31.9635 18.8142C37.2985 14.9375 44.3982 12.4003 51.2602 13.2598C65.231 15.0061 76.6416 30.5998 73.5512 39.1304Z" fill="#53D8FB" fill-opacity="0.74"/>
<path d="M46.9176 43.0985C44.6272 44.3923 38.4373 37.7909 33.0977 28.346C32.2702 26.8876 31.5159 25.4476 30.8347 24.0487C29.1021 20.5011 27.8586 17.2187 27.2186 14.6175C26.4734 11.6048 26.5329 9.49272 27.5706 8.90299C29.8655 7.60923 36.0509 14.2106 41.3951 23.6555C46.7347 33.0959 49.208 41.8002 46.9176 43.0985Z" fill="#53D8FB" fill-opacity="0.74"/>
<path d="M55.7007 23.2029C57.1679 11.4909 54.9879 1.57436 50.8317 1.05373C46.6755 0.5331 42.1169 9.60551 40.6498 21.3175C39.1827 33.0295 41.3626 42.946 45.5188 43.4667C49.675 43.9873 54.2336 34.9149 55.7007 23.2029Z" fill="#53D8FB" fill-opacity="0.74"/>
<path d="M69.5161 32.2202C78.6813 24.7824 83.9716 16.1163 81.3322 12.8638C78.6927 9.61136 69.1231 13.0043 59.9578 20.4421C50.7925 27.8799 45.5023 36.5461 48.1417 39.7985C50.7811 43.051 60.3508 39.6581 69.5161 32.2202Z" fill="#53D8FB" fill-opacity="0.74"/>
<path opacity="0.59" d="M42.9585 45.1694C37.5 51.7891 26.4779 50.6827 21.4354 50.1433C18.3222 49.8096 6.77888 48.5798 2.63702 40.8538C1.89642 39.4686 0.735247 37.5943 1.32041 35.4228C2.04729 32.7347 5.05996 30.7734 17.2661 27.0064C28.8643 23.4269 34.7159 21.6668 37.5549 22.8463C44.9883 25.9458 48.8238 38.0468 42.9585 45.1648V45.1694Z" fill="url(#paint0_linear_1_586)"/>
<path d="M34.9031 29.1368C34.7157 29.8043 35.1089 30.5312 35.6894 30.8695C36.2198 31.1803 36.9329 31.1621 37.4404 30.81C37.9478 30.458 38.3501 29.8592 38.2952 29.21C38.2312 28.4465 37.7649 27.7974 37.0106 27.5871C36.3935 27.4134 35.6666 27.5688 35.2049 28.0305C34.7431 28.4922 34.5603 29.1826 34.734 29.8317C34.9077 30.4809 35.4197 30.9609 36.046 31.1163C36.8826 31.3266 37.7009 30.8146 37.9707 30.0237C38.1032 29.6351 37.9524 29.1688 37.6689 28.89C37.3489 28.57 36.9604 28.5243 36.5352 28.5883C36.4895 28.5974 36.4438 28.6065 36.398 28.6203L36.7226 28.5745C36.6769 28.5791 36.6312 28.5837 36.5855 28.5745L36.9238 28.6203C36.8323 28.6065 36.7363 28.5928 36.6495 28.5608L36.9604 28.6934C36.9329 28.6797 36.9055 28.666 36.8781 28.6477L37.1432 28.8534C37.1066 28.8214 37.0746 28.794 37.0426 28.7574L37.2484 29.0226C37.2209 28.9814 37.1981 28.9448 37.1752 28.9037L37.3078 29.2191C37.2849 29.1597 37.2666 29.1003 37.2575 29.0408L37.3032 29.3929C37.3032 29.3426 37.3032 29.3014 37.3032 29.2557L37.2575 29.6077C37.2621 29.5757 37.2712 29.5483 37.2804 29.5163L37.1478 29.8317C37.1661 29.786 37.1889 29.7494 37.2164 29.7129L37.0106 29.9826C37.0289 29.9597 37.0518 29.9369 37.0792 29.9186L36.8095 30.1243C36.8506 30.0969 36.8872 30.074 36.9283 30.0557L36.6083 30.1883C36.6541 30.17 36.6952 30.1609 36.7455 30.1517L36.3889 30.1975C36.4392 30.1975 36.4803 30.1929 36.5306 30.1975L36.174 30.1517C36.2198 30.1609 36.2655 30.17 36.3112 30.1837L35.9912 30.0466C36.0369 30.0649 36.0735 30.0877 36.11 30.1152L35.8403 29.9049C35.8632 29.9232 35.886 29.946 35.9043 29.9734L35.694 29.6991C35.694 29.6991 35.726 29.7449 35.7397 29.7723L35.6026 29.4523C35.6209 29.4934 35.63 29.53 35.6392 29.5711L35.5889 29.2146C35.5934 29.2831 35.5934 29.3563 35.5889 29.4249L35.6346 29.0683C35.6254 29.114 35.6163 29.1506 35.6026 29.1917L35.7352 28.8763C35.7123 28.9311 35.6849 28.9768 35.6483 29.0271L35.854 28.762C35.8266 28.794 35.7992 28.8214 35.7626 28.8488L36.0232 28.6477C35.9866 28.6705 35.9546 28.6888 35.9135 28.7071L36.2198 28.5791C36.1923 28.5883 36.1649 28.5974 36.1375 28.5974L36.4758 28.5517C36.4483 28.5517 36.4209 28.5563 36.3889 28.5517L36.7226 28.5974C36.6815 28.5928 36.6449 28.5837 36.6038 28.57L36.9009 28.6934C36.8643 28.6751 36.8323 28.6568 36.7958 28.634L37.0426 28.826C37.0106 28.7985 36.9832 28.7711 36.9558 28.7391L37.1478 28.986C37.0564 28.8625 36.9832 28.7117 36.8644 28.6111C36.5261 28.3414 36.1558 28.186 35.7169 28.3094C35.3191 28.4191 35.0037 28.7345 34.894 29.1323L34.9031 29.1368Z" fill="#3E3D4D"/>
<path d="M44.6177 29.3154C43.9914 29.8228 43.8177 30.7737 44.22 31.4641C44.5949 32.1086 45.2989 32.4835 46.0395 32.4789C46.7801 32.4744 47.5756 32.0355 47.9504 31.3772C48.3482 30.6777 48.3344 29.8731 47.9321 29.1783C47.1001 27.7291 44.8692 27.6971 44.0463 29.1645C43.5343 30.0743 43.7583 31.2995 44.6817 31.8572C45.4132 32.3007 46.5378 32.2184 47.1138 31.5372C47.4613 31.1258 47.7264 30.5452 47.5207 29.9966L47.507 29.9646C47.3698 29.5943 47.1595 29.2331 46.7938 29.0365C46.4281 28.84 46.0166 28.776 45.6006 28.8811C45.3538 28.9405 45.0292 29.1051 44.8692 29.2971C44.7275 29.4617 45.2486 29.0731 45.0338 29.1691L45.4132 29.0091C45.3812 29.0228 45.3446 29.032 45.3081 29.032L45.7286 28.9771C45.6921 28.9771 45.6555 28.9771 45.6235 28.9771L46.0441 29.032C46.0075 29.0274 45.9755 29.0182 45.9435 29.0045L46.3184 29.1645C46.4829 29.2743 46.6201 29.4068 46.7298 29.5714L46.8898 29.9463C46.8715 29.9051 46.8624 29.864 46.8578 29.8229L46.9127 30.2389C46.9081 30.1977 46.9127 30.152 46.9127 30.1109L46.8578 30.5269C46.8944 30.376 46.867 30.4354 46.7664 30.7143C46.579 30.9292 46.5424 30.984 46.6475 30.8697C46.5195 31.0023 46.3641 31.0938 46.1812 31.1395C46.2224 31.1258 46.2589 31.1166 46.3001 31.112L45.8886 31.1669C45.9526 31.1623 46.0075 31.1669 46.0715 31.1669L45.6601 31.112C45.8566 31.1486 45.7743 31.208 45.5275 31.0298C45.6601 31.1303 45.6921 31.1852 45.4223 30.9246C45.5915 31.0892 45.2395 30.5772 45.34 30.8012L45.2349 30.5452C45.2486 30.5817 45.2578 30.6229 45.2623 30.664L45.2075 30.2617C45.212 30.3029 45.212 30.344 45.2075 30.3852L45.2623 29.9829C45.2395 30.152 45.1572 30.1749 45.3446 29.8549C45.2258 30.056 45.6052 29.5851 45.4269 29.7406L45.6326 29.5851C45.5961 29.608 45.5641 29.6308 45.5229 29.6446C45.5183 29.5943 45.9481 29.512 45.6418 29.5623L46.0349 29.5074C45.9709 29.512 45.9161 29.512 45.8521 29.5074L46.2452 29.5623C46.1035 29.5303 46.1629 29.5623 46.4235 29.6537C46.2955 29.576 46.3458 29.6171 46.579 29.7817C46.739 30.0103 46.7847 30.0651 46.707 29.9417C46.6338 29.8274 46.5515 29.7223 46.4601 29.6263C46.3732 29.5303 46.2681 29.448 46.1492 29.384C46.3687 29.5668 46.4281 29.608 46.3321 29.5166C46.4829 29.7223 46.5241 29.7726 46.451 29.6674C46.3961 29.5668 46.4189 29.6171 46.5149 29.8229C46.3732 29.4388 46.1264 29.1371 45.7195 29.0274C45.3126 28.9177 44.9378 29.0548 44.6086 29.32L44.6177 29.3154Z" fill="#3E3D4D"/>
<path d="M34.7891 25.2417C35.4428 23.8337 37.1069 23.6371 38.0761 24.8394C38.4921 25.356 39.2144 24.6246 38.803 24.1125C37.4406 22.4256 34.812 22.7548 33.8976 24.7206C33.6233 25.3195 34.5057 25.8406 34.7845 25.2417H34.7891Z" fill="#3E3D4D"/>
<path d="M45.9486 25.2509C47.6538 23.8337 50.1133 24.9309 50.2459 27.1253C50.2871 27.7836 51.3157 27.7882 51.2745 27.1253C51.0871 24.0029 47.6127 22.5354 45.2217 24.524C44.7143 24.9492 45.4457 25.6715 45.9486 25.2509Z" fill="#3E3D4D"/>
<path d="M41.3125 33.5209C41.3125 34.5678 40.4621 35.4181 39.4152 35.4181C38.3684 35.4181 37.5226 34.5678 37.5226 33.5209C37.5226 33.1963 37.6003 32.8946 37.742 32.6295C38.0621 32.0306 38.6884 31.6237 39.4152 31.6237C40.2656 31.6237 40.9833 32.1815 41.2256 32.9541C41.285 33.1323 41.3125 33.3243 41.3125 33.5209Z" fill="#3E3D4D" stroke="#3E3D4D" stroke-width="0.914319" stroke-miterlimit="10" stroke-linecap="round"/>
<path d="M22.5558 51.4446L32.083 48.6804L19.5706 43.5648" fill="#767B77"/>
<path d="M22.5558 51.4446L32.083 48.6804L19.5706 43.5648" stroke="#767B77" stroke-width="1.82864" stroke-linecap="round" stroke-linejoin="round"/>
<path d="M3.14452 32.0765L20.96 35.5144C21.8378 35.6835 22.5189 36.4333 22.6561 37.3842L24.4527 49.7732C24.6767 51.3138 23.4241 52.635 22.0023 52.3607L4.52971 48.9869C3.67482 48.8223 3.0028 48.1046 2.84279 47.1811L0.70329 34.7281C0.433566 33.1692 1.69532 31.8022 3.14452 32.0811V32.0765Z" fill="#3E3D4D"/>
<path d="M10.8844 43.5332C11.609 43.5332 12.1964 42.9457 12.1964 42.2211C12.1964 41.4965 11.609 40.9091 10.8844 40.9091C10.1597 40.9091 9.57233 41.4965 9.57233 42.2211C9.57233 42.9457 10.1597 43.5332 10.8844 43.5332Z" fill="white"/>
<path d="M11.3962 39.9256C11.6865 39.9256 11.9219 39.6902 11.9219 39.3999C11.9219 39.1095 11.6865 38.8741 11.3962 38.8741C11.1058 38.8741 10.8704 39.1095 10.8704 39.3999C10.8704 39.6902 11.1058 39.9256 11.3962 39.9256Z" fill="white"/>
<path d="M12.9 40.9453C13.0818 40.9453 13.2292 40.7979 13.2292 40.6161C13.2292 40.4344 13.0818 40.287 12.9 40.287C12.7182 40.287 12.5709 40.4344 12.5709 40.6161C12.5709 40.7979 12.7182 40.9453 12.9 40.9453Z" fill="white"/>
<path d="M35.699 29.8591C35.9768 29.8591 36.2019 29.6339 36.2019 29.3562C36.2019 29.0785 35.9768 28.8533 35.699 28.8533C35.4213 28.8533 35.1962 29.0785 35.1962 29.3562C35.1962 29.6339 35.4213 29.8591 35.699 29.8591Z" fill="white"/>
<path d="M44.8328 30.8059C45.1106 30.8059 45.3357 30.5807 45.3357 30.303C45.3357 30.0253 45.1106 29.8001 44.8328 29.8001C44.5551 29.8001 44.33 30.0253 44.33 30.303C44.33 30.5807 44.5551 30.8059 44.8328 30.8059Z" fill="white"/>
<path d="M41.2259 32.9541C40.8419 33.3015 40.2659 33.5209 39.6258 33.5209C38.8029 33.5209 38.0898 33.1552 37.7423 32.6295C38.0624 32.0306 38.6887 31.6237 39.4155 31.6237C40.2659 31.6237 40.9836 32.1815 41.2259 32.9541Z" fill="white"/>
<defs>
<linearGradient id="paint0_linear_1_586" x1="4.7357" y1="27.5803" x2="41.0978" y2="47.4124" gradientUnits="userSpaceOnUse">
<stop stop-color="#B5FFDD"/>
<stop offset="1" stop-color="white"/>
</linearGradient>
</defs>
</svg>
