<svg width="90" height="78" viewBox="0 0 90 78" fill="none" xmlns="http://www.w3.org/2000/svg">
<path d="M22.7524 57.7831C26.6271 56.7449 28.8631 52.5259 27.7468 48.3598C26.6305 44.1936 22.5845 41.6579 18.7098 42.6961C14.8352 43.7343 12.5991 47.9533 13.7154 52.1195C14.8318 56.2856 18.8777 58.8213 22.7524 57.7831Z" fill="#7BE6FB"/>
<path d="M70.8858 37.5367C71.137 46.3455 56.2916 53.2783 48.3975 55.6517C38.5725 58.6083 21.3798 59.958 17.0921 51.9507C12.5732 43.511 22.8642 25.5665 37.7756 21.5655C52.7243 17.56 70.6123 28.0089 70.8807 37.5381L70.8858 37.5367Z" fill="#7BE6FB"/>
<path d="M45.9965 54.8036C47.9258 52.3658 42.1086 44.5477 33.0032 37.3412C23.8979 30.1348 14.9525 26.2689 13.0231 28.7067C11.0938 31.1444 16.911 38.9626 26.0164 46.1691C35.1217 53.3755 44.0671 57.2413 45.9965 54.8036Z" fill="#7BE6FB"/>
<path d="M36.0352 52.1076C38.37 49.1575 35.4295 42.9406 29.4672 38.2218C23.505 33.5029 16.7788 32.0691 14.444 35.0192C12.1091 37.9693 15.0497 44.1862 21.0119 48.9051C26.9741 53.6239 33.7003 55.0577 36.0352 52.1076Z" fill="#7BE6FB"/>
<path d="M49.4091 55.3477C53.8554 54.1563 54.7377 43.0309 51.3796 30.4984C48.0215 17.9659 41.6948 8.77216 37.2484 9.96357C32.802 11.155 31.9198 22.2804 35.2779 34.8129C38.6359 47.3453 44.9627 56.5391 49.4091 55.3477Z" fill="#7BE6FB"/>
<path d="M63.3475 37.3916C71.8971 27.6323 75.8907 17.1476 72.2673 13.9734C68.6439 10.7991 58.7758 16.1373 50.2261 25.8966C41.6765 35.6559 37.683 46.1406 41.3064 49.3149C44.9297 52.4891 54.7979 47.1509 63.3475 37.3916Z" fill="#7BE6FB"/>
<path d="M39.2463 40.8295C38.5066 41.0002 38.1433 41.8171 38.1267 42.5137C38.1012 43.4433 38.7852 44.1717 39.6338 44.4277C40.9544 44.8263 42.4198 43.8789 42.7179 42.5522C42.8998 41.7345 42.6828 40.9248 42.1165 40.3076C41.6562 39.7993 40.9775 39.5418 40.3076 39.5015C39.6377 39.4613 38.9422 39.7356 38.4325 40.1907C37.7822 40.7769 37.5734 41.6787 37.72 42.5128C37.9007 43.5354 38.8236 44.2329 39.8219 44.2894C40.8202 44.346 41.7403 43.5777 42.0451 42.6446C42.2446 42.0364 42.0209 41.2835 41.5645 40.851L41.5422 40.8295C40.976 40.2946 40.0466 40.1262 39.3653 40.556C38.9285 40.8323 38.6224 41.2274 38.4815 41.7265L38.6622 41.2936C38.6499 41.3299 38.6298 41.3572 38.6045 41.386L38.8891 41.0131C38.8638 41.0419 38.8386 41.0706 38.8054 41.0905L39.1827 40.7971C39.151 40.8221 39.1165 40.8368 39.0769 40.853L39.5319 40.6651C39.496 40.6747 39.455 40.6857 39.4191 40.6953L39.9071 40.6305C39.8698 40.635 39.8312 40.6343 39.7912 40.6286L40.2595 40.6954L40.2051 40.677L40.638 40.8576L40.586 40.8276L40.9589 41.1121C40.9185 41.0845 40.8833 41.0555 40.8555 41.0135L41.1475 41.3857C41.1211 41.3488 41.0934 41.3068 41.0811 41.2607L41.2675 41.7105C41.2551 41.6644 41.2428 41.6183 41.2304 41.5722L41.2939 42.055C41.2867 42.0075 41.2897 41.9572 41.2927 41.907L41.231 42.3739C41.2426 42.2939 41.2647 42.2331 41.2892 42.1606L41.1124 42.587C41.1335 42.5429 41.1598 42.4974 41.1888 42.4621L40.908 42.8285C40.937 42.7933 40.9673 42.7631 40.9977 42.733L40.6293 43.0185C40.6839 42.9764 40.7311 42.9473 40.7936 42.9141L40.3488 43.0992C40.4332 43.0656 40.5101 43.045 40.5999 43.0319L40.1222 43.094C40.2135 43.086 40.2958 43.0859 40.3874 43.0998L39.9257 43.0368C39.9903 43.0524 40.0535 43.0629 40.1144 43.0851L39.6931 42.9068C39.7735 42.9402 39.8449 42.9815 39.9192 43.033L39.5593 42.7559C39.5945 42.785 39.6233 42.8102 39.6496 42.8471L39.3655 42.4838C39.4076 42.5384 39.4367 42.5856 39.47 42.6481L39.2876 42.2136C39.3106 42.2788 39.3271 42.3403 39.3398 42.4083L39.2805 41.9409C39.2863 41.9832 39.282 42.0283 39.2776 42.0735L39.3382 41.6233C39.3338 41.6684 39.3243 41.7149 39.3134 41.7563C39.4525 41.4554 39.4821 41.3815 39.4075 41.5333C39.2762 41.7608 39.7529 41.1826 39.4535 41.4386L39.8079 41.1624C39.7533 41.2045 39.6959 41.2363 39.6385 41.2682L40.0628 41.0886C39.9989 41.1167 39.9425 41.1318 39.8731 41.1394L40.3303 41.0828C40.261 41.0904 40.1991 41.085 40.1308 41.0759L40.5693 41.1341C40.369 41.0835 40.7987 41.2319 40.8015 41.2422C40.7974 41.2268 40.7013 41.1757 40.6766 41.1658C40.5467 41.0908 40.3706 41.0281 40.2321 40.9828C40.0756 40.9314 40.1565 40.9262 40.4411 41.0861C40.1955 40.9487 40.6604 41.269 40.5338 41.1656C40.1578 40.8489 39.7308 40.7107 39.2501 40.823L39.2463 40.8295Z" fill="#3E3D4D"/>
<path d="M22.271 31.3059C22.373 29.1859 24.5113 28.0033 26.369 29.0325C27.0392 29.4021 27.6422 28.3727 26.9654 27.9993C24.3103 26.5357 21.2188 28.2813 21.0779 31.3015C21.0419 32.0692 22.235 32.0735 22.2723 31.311L22.271 31.3059Z" fill="#3E3D4D"/>
<path d="M34.9375 30.7956C35.9717 28.8542 38.5254 28.9554 39.4645 30.9228C39.7979 31.6134 40.8224 31.0093 40.4942 30.3173C39.1696 27.5469 35.3416 27.5071 33.9043 30.1991C33.5425 30.8782 34.5757 31.4747 34.9375 30.7956Z" fill="#3E3D4D"/>
<path d="M31.3134 54.1271L49.6734 68.9205" stroke="#FFB487" stroke-width="2.37076" stroke-miterlimit="10" stroke-linecap="round"/>
<path d="M28.1158 48.2609C30.3262 47.6686 31.638 45.3966 31.0457 43.1861C30.4534 40.9757 28.1813 39.6639 25.9709 40.2562C23.7604 40.8485 22.4487 43.1205 23.0409 45.331C23.6332 47.5414 25.9053 48.8532 28.1158 48.2609Z" fill="#3E3D4D"/>
<path d="M38.6176 47.4407C38.9156 48.5528 38.2553 49.6964 37.1433 49.9944C36.0312 50.2923 34.8927 49.6307 34.5947 48.5186C34.5027 48.1753 34.4982 47.8305 34.5713 47.5088C34.7393 46.7827 35.2901 46.1737 36.064 45.9664C36.9659 45.7247 37.8888 46.1146 38.3647 46.8658C38.477 47.039 38.5627 47.2357 38.6176 47.4407Z" fill="#3E3D4D" stroke="#3E3D4D" stroke-width="0.948303" stroke-miterlimit="10" stroke-linecap="round"/>
<path d="M38.3633 46.8608C38.0522 47.3396 37.5042 47.7336 36.8226 47.9163C35.9514 48.1497 35.0886 47.9635 34.5699 47.5037C34.7379 46.7777 35.2887 46.1687 36.0626 45.9613C36.9645 45.7196 37.8874 46.1095 38.3633 46.8608Z" fill="white"/>
<path opacity="0.45" d="M24.4322 57.7999C31.0777 56.0193 35.0257 49.2046 33.2503 42.5789C31.475 35.9532 24.6485 32.0255 18.003 33.8062C11.3575 35.5868 7.40951 42.4015 9.18485 49.0272C10.9602 55.6529 17.7867 59.5806 24.4322 57.7999Z" fill="#B5FFDD"/>
<path d="M24.04 57.9764C30.6855 56.1957 34.6292 49.365 32.8486 42.7195C31.0679 36.074 24.2372 32.1303 17.5917 33.9109C10.9462 35.6916 7.00243 42.5223 8.78309 49.1678C10.5637 55.8133 17.3945 59.7571 24.04 57.9764Z" stroke="#FFB487" stroke-width="1.42245" stroke-miterlimit="10"/>
<path d="M63.7648 46.4644C63.3434 54.4647 58.805 62.5355 51.11 65.652C48.4251 66.7833 45.5332 67.3055 42.6696 67.2984C39.9479 67.3081 37.7283 65.1126 37.7134 62.3923C37.7036 59.6705 39.8992 57.451 42.6195 57.4361C45.2346 57.746 47.9293 57.6556 50.264 56.3654C54.2116 54.4124 56.6197 49.9113 57.4594 45.6657C58.3109 41.8124 63.906 42.5432 63.7596 46.4657L63.7648 46.4644Z" fill="#7BE6FB"/>
</svg>
