<svg width="101" height="68" viewBox="0 0 101 68" fill="none" xmlns="http://www.w3.org/2000/svg">
<path opacity="0.47" d="M79.1947 35.7792C77.8657 50.3389 65.5529 64.646 49.3298 64.5087C33.7329 64.377 22.0297 50.9538 20.1624 37.3768C17.7735 20.0007 31.311 1.03251 49.3298 0.889772C66.8599 0.74703 80.7764 18.48 79.1947 35.7792Z" fill="url(#paint0_linear_1_637)"/>
<path opacity="0.47" d="M58.1253 38.3809C59.6272 40.624 68.0958 53.2471 63.5792 59.5586C55.7299 70.5213 9.74162 60.9551 5.32915 39.9533C3.98075 33.5263 6.51313 25.9723 11.4847 21.9863C22.8091 12.9094 47.1517 22.0248 58.1198 38.3809H58.1253Z" fill="url(#paint1_linear_1_637)"/>
<path opacity="0.47" d="M56.7508 61.0861C54.0813 60.7352 39.0399 58.7394 37.3187 51.1839C34.3258 38.0576 71.9292 9.90796 90.5446 20.4737C96.2399 23.7086 100.203 30.5953 99.8906 36.9555C99.1725 51.4416 76.2432 63.6631 56.7563 61.0806L56.7508 61.0861Z" fill="url(#paint2_linear_1_637)"/>
<path d="M24.1438 50.8386C19.2626 52.9934 13.7384 52.7247 12.6885 46.4468C12.5511 45.9204 12.4246 45.7395 12.3642 45.7121C12.0454 45.5366 11.754 45.4927 11.1824 45.4927C9.21453 45.553 6.81794 46.222 4.70168 45.3886C-1.33378 43.0254 0.722019 34.823 3.40445 30.6779C6.29025 26.4725 12.4906 30.3763 9.92361 34.7846C8.78578 36.1937 8.0657 37.9866 7.84583 39.637C7.78537 39.5109 7.52702 39.2148 7.35113 39.138C7.28517 39.0942 7.19172 39.0887 7.18073 39.0723C7.15324 39.0613 7.09277 39.0722 7.13674 39.0777C8.43398 39.3409 10.0006 38.979 11.5726 39.1819C13.6559 39.3245 16.0415 40.3552 17.2948 42.3126C18.2567 43.6834 18.4161 45.5202 18.614 46.5893C18.614 46.6332 18.614 46.5784 18.5865 46.5948C18.581 46.5674 18.5371 46.5564 18.5206 46.54C18.4711 46.5071 18.4601 46.529 18.5096 46.5674C18.614 46.6496 18.9163 46.7374 19.3231 46.7538C20.1586 46.7922 21.3184 46.5455 22.4288 46.1781C25.4795 45.2789 27.0516 49.5611 24.1438 50.8441V50.8386Z" fill="#7BE6FB"/>
<path d="M78.8088 44.174C80.2267 44.5354 81.6611 44.8858 82.8427 44.4807C82.9252 44.4314 82.9582 44.3931 82.9197 44.3985C82.8757 44.4095 82.7878 44.4916 82.7493 44.5245C82.8043 43.7361 83.0736 41.8745 83.9804 40.6098C84.6344 39.6298 85.6291 38.8633 86.6844 38.3596C88.7563 37.292 91.9549 37.5602 93.6366 37.511C94.0873 37.4945 94.3841 37.3796 94.1862 37.4069C93.8894 37.4617 93.5872 37.8066 93.4882 38.0475C93.3948 38.2665 93.4333 38.1351 93.3454 37.823C93.0706 36.7226 92.477 35.3429 91.5702 34.3847C88.3661 30.4263 93.9059 25.6356 97.3903 29.3532C100.133 32.9065 102.556 39.8981 97.9069 43.1283C95.0106 45.0555 91.9934 43.5937 89.1575 43.977C88.9761 44.0427 88.8772 44.0865 88.8662 44.0646C88.8387 44.0481 88.7288 44.1303 88.5969 44.6942C88.5584 44.8584 88.454 45.2745 88.4156 45.4333C88.1078 46.7583 87.3549 48.1325 86.1787 48.8935C83.4528 50.7222 79.8805 49.8516 77.237 48.8661C74.2692 47.6781 75.7311 43.3309 78.8143 44.1576L78.8088 44.174Z" fill="#7BE6FB"/>
<path d="M80.6777 51.7396C78.4503 61.0972 60.8395 64.2127 51.8421 64.4869C40.6447 64.827 22.1342 61.3988 19.8793 51.7396C17.4983 41.5592 33.4248 25.5536 50.2785 25.5482C67.1706 25.5482 83.0861 41.6195 80.6777 51.7396Z" fill="#7BE6FB"/>
<path d="M48.6482 61.7731C52.6834 58.7719 49.0987 47.1209 40.6414 35.7498C32.1842 24.3788 22.0571 17.5936 18.0219 20.5948C13.9867 23.596 17.5714 35.247 26.0286 46.6181C34.4859 57.9892 44.613 64.7743 48.6482 61.7731Z" fill="#7BE6FB"/>
<path d="M50.2811 61.4273C55.2861 61.4273 59.3434 49.9178 59.3434 35.7201C59.3434 21.5223 55.2861 10.0128 50.2811 10.0128C45.2762 10.0128 41.2189 21.5223 41.2189 35.7201C41.2189 49.9178 45.2762 61.4273 50.2811 61.4273Z" fill="#7BE6FB"/>
<path d="M74.5831 46.6331C83.0403 35.262 86.625 23.611 82.5898 20.6098C78.5546 17.6086 68.4275 24.3938 59.9703 35.7649C51.513 47.1359 47.9283 58.7869 51.9635 61.7881C55.9987 64.7893 66.1258 58.0042 74.5831 46.6331Z" fill="#7BE6FB"/>
<path d="M45.5342 50.3307C45.8689 50.6777 47.5646 52.3453 50.2811 52.4237C52.9028 52.502 54.6487 51.0414 55.028 50.7112" stroke="#3E3D4D" stroke-miterlimit="10" stroke-linecap="round"/>
<path d="M39.488 38.9423C40.1604 36.9048 42.6295 36.3127 44.2223 37.7955C44.7955 38.3289 45.6773 37.4862 45.0986 36.9474C42.8279 34.8299 39.251 35.7207 38.2921 38.6223C38.0496 39.3583 39.2455 39.673 39.488 38.9423Z" fill="#3E3D4D"/>
<path d="M41.8091 46.449C42.4697 44.3413 44.8955 43.7288 46.4603 45.2627C47.0235 45.8145 47.8898 44.9427 47.3213 44.3854C45.0904 42.1949 41.5763 43.1163 40.6341 46.118C40.3959 46.8794 41.5709 47.205 41.8091 46.449Z" fill="#3E3D4D"/>
<path d="M53.6441 44.9224C55.1715 43.3203 57.7624 43.7111 58.5656 45.8379C58.8485 46.5859 60.0817 46.2622 59.7932 45.503C58.6731 42.5444 54.9792 41.6903 52.739 44.0348C52.179 44.621 53.0784 45.5141 53.6385 44.9224H53.6441Z" fill="#3E3D4D"/>
<path d="M56.8097 37.4744C58.4634 35.6915 61.1575 36.5305 61.5956 38.9096C61.7434 39.6934 62.9262 39.3622 62.7838 38.5784C62.176 35.2885 58.1896 34.168 55.939 36.5967C55.3969 37.1818 56.2676 38.0595 56.8097 37.4744Z" fill="#3E3D4D"/>
<defs>
<linearGradient id="paint0_linear_1_637" x1="49.5989" y1="0.884282" x2="49.5989" y2="64.5088" gradientUnits="userSpaceOnUse">
<stop stop-color="white"/>
<stop offset="1" stop-color="#FFA23F"/>
</linearGradient>
<linearGradient id="paint1_linear_1_637" x1="9.36348" y1="24.0302" x2="61.3516" y2="62.5801" gradientUnits="userSpaceOnUse">
<stop stop-color="white"/>
<stop offset="1" stop-color="#FFA23F"/>
</linearGradient>
<linearGradient id="paint2_linear_1_637" x1="99.7779" y1="34.0155" x2="36.5142" y2="47.3323" gradientUnits="userSpaceOnUse">
<stop stop-color="white"/>
<stop offset="1" stop-color="#FFA23F"/>
</linearGradient>
</defs>
</svg>
